<?xml version="1.0" encoding="UTF-8"?>
<svg xmlns="http://www.w3.org/2000/svg" xmlns:xlink="http://www.w3.org/1999/xlink" viewBox="0 0 96 96" width="96px" height="96px">
<g id="surface104268566">
<path style=" stroke:none;fill-rule:nonzero;fill:rgb(0%,59.607846%,92.156863%);fill-opacity:1;" d="M 48 8 C 25.90625 8 8 25.90625 8 48 C 8 65.773438 19.601562 80.820312 35.640625 86.03125 L 60.359375 86.03125 C 76.398438 80.820312 88 65.773438 88 48 C 88 25.90625 70.09375 8 48 8 Z M 48 8 "/>
<path style=" stroke:none;fill-rule:nonzero;fill:rgb(89.019608%,92.941177%,98.823529%);fill-opacity:1;" d="M 74 47 C 74 41.207031 72.25 37.066406 69.289062 34.152344 C 71.183594 30.789062 68.679688 24 68.679688 24 C 63.679688 25 59.945312 27 57.460938 28.753906 C 54.523438 28.230469 51.34375 28 48 28 C 44.578125 28 41.320312 28.234375 38.332031 28.785156 C 35.847656 27.027344 32.101562 25.007812 27.066406 24 C 27.066406 24 24.5 30.984375 26.558594 34.292969 C 23.6875 37.199219 22 41.300781 22 47 C 22 59.242188 29.757812 64.15625 40.417969 65.546875 C 38.933594 67.292969 38 69.527344 38 72 L 38 72.609375 C 37.675781 72.699219 37.335938 72.777344 36.972656 72.824219 C 34.757812 73.113281 32.429688 72.824219 31.304688 72.160156 C 30.183594 71.492188 28.847656 69.992188 27.847656 68.535156 C 27.003906 67.300781 25.320312 64.46875 21.015625 64.574219 C 20.265625 64.554688 19.921875 65.261719 20.015625 65.703125 C 20.101562 66.089844 20.441406 66.703125 21.808594 67.203125 C 23.179688 67.703125 23.933594 68.910156 24.683594 70.117188 C 25.519531 71.464844 25.519531 75.054688 29.808594 76.949219 C 32.867188 78.304688 35.785156 78.136719 38.003906 77.605469 L 38.003906 84 C 38.003906 85.28125 36.832031 86.25 35.621094 86.027344 C 39.511719 87.335938 43.664062 88 48 88 C 52.332031 88 56.484375 87.335938 60.378906 86.03125 C 59.167969 86.253906 58 85.28125 58 84.003906 L 58 72 C 58 69.527344 57.066406 67.292969 55.582031 65.546875 C 66.242188 64.15625 74 59.242188 74 47 Z M 74 47 "/>
<path style=" stroke:none;fill-rule:nonzero;fill:rgb(89.019608%,92.941177%,98.823529%);fill-opacity:1;" d="M 30 36 L 37.675781 33.441406 C 39.695312 32.769531 40.136719 30.074219 38.40625 28.839844 L 38.332031 28.785156 C 33.535156 29.664062 29.441406 31.367188 26.554688 34.292969 C 27.191406 35.316406 28.257812 36 30 36 Z M 30 36 "/>
<path style=" stroke:none;fill-rule:nonzero;fill:rgb(89.019608%,92.941177%,98.823529%);fill-opacity:1;" d="M 57.386719 28.804688 C 55.628906 30.050781 56.074219 32.777344 58.117188 33.457031 L 65.742188 36 C 67.570312 36 68.664062 35.261719 69.289062 34.152344 C 66.371094 31.277344 62.265625 29.605469 57.460938 28.75 C 57.433594 28.769531 57.410156 28.785156 57.386719 28.804688 Z M 57.386719 28.804688 "/>
<path style=" stroke:none;fill-rule:nonzero;fill:rgb(89.019608%,92.941177%,98.823529%);fill-opacity:1;" d="M 48 62 C 44.949219 62 42.253906 63.394531 40.417969 65.546875 C 42.816406 65.863281 45.363281 66 48 66 C 50.636719 66 53.183594 65.863281 55.582031 65.546875 C 53.746094 63.394531 51.050781 62 48 62 Z M 48 62 "/>
</g>
</svg>
